<?xml version="1.0" encoding="utf-8"?>
<!-- Generator: Adobe Illustrator 18.1.0, SVG Export Plug-In . SVG Version: 6.00 Build 0)  -->
<!DOCTYPE svg PUBLIC "-//W3C//DTD SVG 1.1//EN" "http://www.w3.org/Graphics/SVG/1.1/DTD/svg11.dtd">
<svg version="1.1" id="Layer_1" xmlns="http://www.w3.org/2000/svg" xmlns:xlink="http://www.w3.org/1999/xlink" x="0px" y="0px"
	 viewBox="0 0 160 35" enable-background="new 0 0 160 35" xml:space="preserve">
<g>
	<path fill="#646B6B" d="M55.6,25.9L54,21.4h-8.6l-1.6,4.5h-1.5L49,7.5h1.2l6.8,18.4H55.6z M49.7,9.3l-3.8,10.8h7.7L49.7,9.3z"/>
	<path fill="#646B6B" d="M72.3,25.9l-4.4-8.5h-5.1v8.5h-1.4V7.5h7c0.7,0,1.4,0.1,2.1,0.3c0.6,0.2,1.2,0.5,1.7,0.9
		c0.5,0.4,0.8,0.9,1.1,1.5c0.3,0.6,0.4,1.3,0.4,2.1c0,1.4-0.4,2.5-1.1,3.3c-0.8,0.9-1.8,1.4-3.1,1.6l4.4,8.5H72.3z M72,10.8
		c-0.2-0.5-0.5-0.9-0.8-1.2c-0.4-0.3-0.8-0.5-1.3-0.7c-0.5-0.1-1-0.2-1.6-0.2h-5.4v7.4h5.4c0.6,0,1.1-0.1,1.6-0.2
		c0.5-0.1,0.9-0.4,1.3-0.7c0.4-0.3,0.6-0.7,0.8-1.2c0.2-0.5,0.3-1,0.3-1.7C72.3,11.8,72.2,11.2,72,10.8z"/>
	<path fill="#646B6B" d="M91.4,18.4c0,0.7-0.1,1.4-0.2,2.1c-0.1,0.7-0.3,1.4-0.5,2c-0.2,0.6-0.6,1.2-1.1,1.7c-0.6,0.6-1.2,1-2,1.3
		s-1.6,0.4-2.6,0.4h-6.2V7.5h6.2c1.9,0,3.5,0.6,4.6,1.7c0.5,0.5,0.8,1,1.1,1.6c0.2,0.6,0.4,1.2,0.5,1.8c0.1,0.6,0.2,1.3,0.2,1.9
		c0,0.7,0,1.3,0,1.9C91.4,17,91.4,17.7,91.4,18.4z M90,14.8c0-0.6-0.1-1.1-0.1-1.7c-0.1-0.6-0.2-1.1-0.4-1.6c-0.2-0.5-0.5-1-0.8-1.3
		c-0.5-0.6-1.1-0.9-1.8-1.1c-0.7-0.2-1.4-0.3-2.1-0.3h-4.4v15.9h4.4c0.7,0,1.5-0.1,2.1-0.3c0.7-0.2,1.3-0.6,1.8-1.1
		c0.4-0.4,0.6-0.8,0.8-1.4c0.2-0.6,0.3-1.2,0.4-1.8c0.1-0.6,0.1-1.3,0.1-1.9c0-0.6,0-1.2,0-1.7C90,15.9,90,15.3,90,14.8z"/>
	<path fill="#646B6B" d="M108.8,22.4c-0.3,0.7-0.7,1.4-1.3,1.9c-0.6,0.5-1.2,1-2,1.3c-0.8,0.3-1.6,0.5-2.5,0.5
		c-0.9,0-1.8-0.2-2.5-0.5c-0.8-0.3-1.4-0.7-2-1.3c-0.6-0.5-1-1.2-1.3-1.9c-0.3-0.7-0.5-1.6-0.5-2.5V7.5H98v12.2
		c0,0.8,0.1,1.5,0.3,2.1c0.2,0.6,0.6,1.2,1,1.6c0.4,0.4,0.9,0.8,1.6,1c0.6,0.2,1.3,0.4,2,0.4c0.7,0,1.4-0.1,2-0.4
		c0.6-0.2,1.1-0.6,1.5-1c0.4-0.4,0.8-1,1-1.6c0.2-0.6,0.3-1.3,0.3-2.1V7.5h1.4v12.4C109.2,20.8,109.1,21.6,108.8,22.4z"/>
	<path fill="#646B6B" d="M126.1,22.8c-0.4,0.7-0.8,1.3-1.4,1.7c-0.6,0.5-1.3,0.8-2.2,1.1c-0.8,0.2-1.7,0.4-2.7,0.4
		c-1.4,0-2.6-0.2-3.7-0.5c-1.1-0.4-2.1-1-3-1.9l2.3-2.3c0.6,0.6,1.3,1,2,1.2c0.8,0.2,1.6,0.3,2.4,0.3c1.1,0,1.9-0.2,2.4-0.6
		c0.6-0.4,0.8-1,0.8-1.7c0-0.7-0.2-1.2-0.6-1.6c-0.2-0.2-0.4-0.3-0.6-0.4c-0.2-0.1-0.6-0.2-1-0.2l-2.2-0.3c-1.6-0.2-2.8-0.7-3.6-1.5
		c-0.9-0.9-1.3-2.1-1.3-3.6c0-0.8,0.1-1.6,0.4-2.3c0.3-0.7,0.7-1.3,1.3-1.8c0.6-0.5,1.2-0.9,2-1.1c0.8-0.3,1.7-0.4,2.7-0.4
		c1.3,0,2.4,0.2,3.3,0.5c0.9,0.3,1.8,0.9,2.6,1.7l-2.3,2.2c-0.6-0.6-1.2-0.9-1.9-1c-0.7-0.1-1.3-0.2-1.9-0.2c-1,0-1.7,0.2-2.1,0.7
		c-0.5,0.5-0.7,1-0.7,1.6c0,0.2,0,0.5,0.1,0.7c0.1,0.2,0.2,0.4,0.4,0.6c0.2,0.2,0.4,0.3,0.7,0.5c0.3,0.1,0.6,0.2,1,0.3l2.2,0.3
		c0.8,0.1,1.5,0.3,2.1,0.5c0.6,0.2,1,0.5,1.4,0.9c0.5,0.5,0.9,1,1.1,1.7c0.2,0.7,0.3,1.4,0.3,2.2C126.7,21.3,126.5,22.1,126.1,22.8z
		"/>
	<path fill="#646B6B" d="M141.4,25.9l-1.1-3.3h-6.5l-1.1,3.3h-3.7l6.7-18.4h2.8l6.7,18.4H141.4z M137.1,12.9l-2.3,6.7h4.6
		L137.1,12.9z"/>
	<path fill="#646B6B" d="M153.7,10.7v15.2h-3.6V10.7h-4.8V7.5h13.2v3.2H153.7z"/>
</g>
<path fill="#30B6C1" d="M34,20.8L20.7,7.5L24,4.1c0.7-0.7,0.7-1.9,0-2.7c-0.4-0.4-0.8-0.6-1.3-0.6c-0.5,0-1,0.2-1.3,0.6L8.1,14.8
	l-3.3-3.3c-0.4-0.4-0.8-0.6-1.3-0.6s-1,0.2-1.3,0.6c-0.7,0.7-0.7,1.9,0,2.7l13.3,13.3L12,30.8c-0.4,0.4-0.6,0.8-0.6,1.3
	s0.2,1,0.6,1.3c0.4,0.4,0.8,0.6,1.3,0.6c0.5,0,1-0.2,1.3-0.6L28,20.1l3.3,3.3c0.4,0.4,0.8,0.6,1.3,0.6c0.5,0,1-0.2,1.3-0.6
	C34.7,22.7,34.7,21.5,34,20.8z M18,24.7l-7.3-7.3l7.3-7.3l7.3,7.3L18,24.7z M18,21.7l-4.3-4.3l4.3-4.3l4.3,4.3L18,21.7z"/>
</svg>
